<svg xmlns="http://www.w3.org/2000/svg" viewBox="0 0 1462.44 575.54"><defs><style>.cls-1{fill:#3d3d3b;}.cls-2{fill:#6cc89d;}.cls-3{fill:#136f44;}.cls-4{fill:#1daa68;}.cls-5{fill:#c6ead9;}.cls-6{fill:#3c3c3b;}</style></defs><g id="Laag_2" data-name="Laag 2"><g id="Isolatiemodus"><path class="cls-1" d="M868.59,242a66.23,66.23,0,0,1,47.12,19.51l5.65,5.66,33.92-33.92-5.65-5.65a114.57,114.57,0,1,0,0,162l5.65-5.65L921.36,350l-5.65,5.66A66.62,66.62,0,1,1,868.59,242Z"/><path class="cls-1" d="M1105.88,194a114.58,114.58,0,1,0,114.61,114.58A114.6,114.6,0,0,0,1105.88,194Zm0,181.18a66.61,66.61,0,1,1,66.62-66.6A66.62,66.62,0,0,1,1105.88,375.18Z"/><path class="cls-1" d="M1363.83,200.47H1289.2a24,24,0,0,0-24,24V416.69h48V248.42h50.64a50.63,50.63,0,0,1,50.64,50.63V416.69h48V299.05A98.59,98.59,0,0,0,1363.83,200.47Z"/><path class="cls-1" d="M607.4,200.47H532.77a24,24,0,0,0-24,24V416.69h48V248.42H607.4A50.63,50.63,0,0,1,658,299.05V416.69h48V299.05A98.59,98.59,0,0,0,607.4,200.47Z"/><path class="cls-1" d="M299.78,209.36A114.58,114.58,0,1,0,414.39,407.8l-24-41.53a66.75,66.75,0,0,1-75.14-5.86l151-86.56a114.57,114.57,0,0,0-166.51-64.49Zm24,41.54a66.74,66.74,0,0,1,75.14,5.85L291.27,318.88A66.7,66.7,0,0,1,323.77,250.9Z"/><polyline points="177.1 0.22 177.07 0.17 176.85 0.31 176.87 0.35 177.1 0.22"/><path class="cls-2" d="M177,.29l-.12.06h0C71.07,62.36,0,177.25,0,308.74A355.66,355.66,0,0,0,36,465.22L78.17,441a307.38,307.38,0,0,1-29.7-132.28c0-113.68,61.43-213,152.9-266.58L177,.29"/><path class="cls-3" d="M177,.29l-.12.06h0L177,.29"/><path class="cls-2" d="M225.76,84A260.17,260.17,0,0,0,96.91,308.74h48.45A211.75,211.75,0,0,1,250.15,125.9L225.76,84"/><path class="cls-4" d="M512.58,41.89,488.19,83.76A260.53,260.53,0,0,0,225.76,84L201.37,42.16a309.09,309.09,0,0,1,311.21-.27Z"/><path class="cls-5" d="M120.33,416.8,78.17,441A309.55,309.55,0,0,0,201.76,575.54l24.38-41.86A261.12,261.12,0,0,1,120.33,416.8"/><polyline class="cls-6" points="35.97 465.11 35.94 465.13 36.07 465.35 36.1 465.33"/><polyline points="0.02 308.61 0 308.61 0 308.87 0.02 308.87"/></g></g></svg>