<svg xmlns="http://www.w3.org/2000/svg" viewBox="0 0 1227.73 1378.53"><defs><style>.cls-1,.cls-2,.cls-3,.cls-4,.cls-5{fill:#fff;}.cls-2{stroke:#000;}.cls-2,.cls-5{stroke-miterlimit:10;stroke-width:0.25px;}.cls-3{opacity:0.65;}.cls-4{opacity:0.25;}.cls-5{stroke:#3c3c3b;}</style></defs><g id="Laag_2" data-name="Laag 2"><g id="Layer_1" data-name="Layer 1"><path class="cls-1" d="M718,501.46C587,577.12,541.88,745.27,617.56,876.32s243.89,176.1,375,100.44l-57.46-99.49c-58.67,33.87-130.11,26.1-180-14l361.73-207.32a274.24,274.24,0,0,0-23.83-54C1017.33,470.86,849.12,425.8,718,501.46Zm57.45,99.48c58.67-33.86,130.11-26.09,180,14L697.65,763.77C687.83,700.54,716.82,634.81,775.49,600.94Z"/><line class="cls-2" x1="423.91" y1="0.69" x2="423.85" y2="0.58"/><path class="cls-3" d="M116.09,739.5a736.37,736.37,0,0,0,71.14,316.83l-100.92,58A851.89,851.89,0,0,1,.05,739.5C.05,424.43,170.35,149.16,423.91.69L482.32,101C263.24,229.33,116.09,467.21,116.09,739.5Z"/><path class="cls-3" d="M599.15,301.55c-150.16,88.11-251,251.25-251,438h-116c0-229.5,124-430,308.62-538.24Z"/><path class="cls-1" d="M1227.73,100.34l-58.41,100.28a624.12,624.12,0,0,0-628.58.64L482.32,101a740.32,740.32,0,0,1,745.41-.64Z"/><path class="cls-4" d="M541.64,1278.27l-58.39,100.26a743,743,0,0,1-238.45-222,734.51,734.51,0,0,1-57.57-100.16l101-58a620.56,620.56,0,0,0,57.56,100.17A627,627,0,0,0,541.64,1278.27Z"/><line class="cls-5" x1="86.31" y1="1114.29" x2="86.23" y2="1114.34"/><line class="cls-2" x1="0.05" y1="739.5" y2="739.5"/></g></g></svg>