<?xml version="1.0" encoding="utf-8"?>
<!-- Generator: Adobe Illustrator 25.1.0, SVG Export Plug-In . SVG Version: 6.00 Build 0)  -->
<svg version="1.1" id="Capa_1" xmlns="http://www.w3.org/2000/svg" xmlns:xlink="http://www.w3.org/1999/xlink" x="0px" y="0px"
	 viewBox="0 0 112.2 112.2" style="enable-background:new 0 0 112.2 112.2;" xml:space="preserve">
<style type="text/css">
	.st0{fill:#51A76E;}
	.st1{fill:#FFFFFF;}
</style>
<g>
	<polygon class="st0" points="62.1,49.3 62.1,49.2 62,49.3 	"/>
	<path class="st1" d="M56.1,0C25.1,0,0,25.1,0,56.1c0,31,25.1,56.1,56.1,56.1c31,0,56.1-25.1,56.1-56.1C112.2,25.1,87.1,0,56.1,0z
		 M41.3,83.7H27.9V43.4h13.4V83.7z M34.6,38L34.6,38c-4.6,0-7.5-3.1-7.5-7c0-4,3-7,7.6-7c4.5,0,7.4,3,7.5,7
		C42.2,34.9,39.3,38,34.6,38z M89.6,83.7H76.2V62.2c0-5.4-1.9-9.1-6.8-9.1c-3.7,0-5.9,2.5-6.9,4.9c-0.4,0.9-0.4,2.1-0.4,3.3v22.5
		H48.7c0,0,0.2-36.5,0-40.3h13.4v5.7c1.8-2.7,5-6.7,12.1-6.7c8.8,0,15.4,5.7,15.4,18.1V83.7z"/>
</g>
</svg>
