<svg xmlns="http://www.w3.org/2000/svg" viewBox="0 0 276.06 325.53"><defs><style>.cls-1{fill:#fff;}.cls-2{opacity:0.4;}</style></defs><g id="Laag_2" data-name="Laag 2"><g id="Laag_1-2" data-name="Laag 1"><path class="cls-1" d="M276.06,324.5H255.53A106.73,106.73,0,0,0,148.92,217.89V197.36A127.29,127.29,0,0,1,276.06,324.5Z"/><g class="cls-2"><path class="cls-1" d="M20.53,325.53H0c0-82.11,66.8-148.91,148.92-148.91v20.53A128.53,128.53,0,0,0,20.53,325.53Z"/></g><g class="cls-2"><path class="cls-1" d="M62.9,324.28H42.37A106.53,106.53,0,0,1,148.79,217.87V238.4A86,86,0,0,0,62.9,324.28Z"/></g><path class="cls-1" d="M140,143.71a71.86,71.86,0,1,1,71.85-71.86A71.94,71.94,0,0,1,140,143.71Zm0-123.18a51.33,51.33,0,1,0,51.32,51.32A51.38,51.38,0,0,0,140,20.53Z"/></g></g></svg>